<svg xmlns="http://www.w3.org/2000/svg" viewBox="0 0 360 360"><defs><style>.cls-1{fill:none;}.cls-2{fill:#0f0326;}.cls-2,.cls-3{fill-rule:evenodd;}.cls-3{fill:#e65f5c;}</style></defs><g id="Layer_2" data-name="Layer 2"><g id="Layer_1-2" data-name="Layer 1"><rect class="cls-1" width="360" height="360"/><path class="cls-2" d="M162.19,71.86C11.58,92.76,39,324.39,200.68,300.5c60.11-8.88,105.94-63.52,94.55-135.43-.13-.77-.26-1.54-.4-2.31a32.47,32.47,0,0,1-32.27,29.63c-.94,0-1.88,0-2.8-.12-2.61,38.87-31,67.66-67.27,72.34C83.57,278.66,63.88,123.73,169.64,107.72a84.59,84.59,0,0,1,21.17-.58,32.54,32.54,0,0,1,30.31-21h9V80C210.49,71.6,187.39,68.36,162.19,71.86Z"/><path class="cls-3" d="M243.14,205.19c-21.36,9-31.41,17.59-61.48,17.68-24.41.06-46.7-7.35-61.27-18.51,4,16,33.63,39,59,39.87C209.44,245.24,236.62,224.07,243.14,205.19Z"/><path class="cls-3" d="M221.12,99.22h22.1V77.11a19.38,19.38,0,0,1,19.34-19.33h0a19.39,19.39,0,0,1,19.33,19.33V99.22H304a19.38,19.38,0,0,1,19.33,19.33h0A19.39,19.39,0,0,1,304,137.9H281.89V160a19.39,19.39,0,0,1-19.33,19.34h0A19.39,19.39,0,0,1,243.22,160V137.9h-22.1a19.4,19.4,0,0,1-19.35-19.35h0A19.4,19.4,0,0,1,221.12,99.22Z"/></g></g></svg>