<svg xmlns="http://www.w3.org/2000/svg" viewBox="0 0 825.07 244.45"><defs><style>.cls-1,.cls-3{fill:#0f0326;}.cls-1,.cls-2{fill-rule:evenodd;}.cls-2{fill:#e65f5c;}.cls-3{font-size:165px;font-family:Montserrat-Bold, Montserrat;font-weight:700;}</style></defs><g id="Layer_2" data-name="Layer 2"><g id="Layer_1-2" data-name="Layer 1"><path class="cls-1" d="M99.17,14.08C-51.45,35-24,266.61,137.66,242.72c60.1-8.87,105.93-63.52,94.54-135.42-.13-.78-.26-1.54-.4-2.32a32.45,32.45,0,0,1-32.27,29.63c-.94,0-1.88,0-2.79-.11-2.62,38.86-31,67.66-67.28,72.33C20.54,220.88.85,66,106.62,49.94a85.06,85.06,0,0,1,21.17-.58,32.51,32.51,0,0,1,30.31-21h9V22.25C147.46,13.82,124.36,10.58,99.17,14.08Z"/><path class="cls-2" d="M180.11,147.41c-21.36,9-31.41,17.6-61.48,17.68-24.41.07-46.69-7.35-61.27-18.5,4,16,33.64,39,59,39.86C146.41,187.46,173.59,166.29,180.11,147.41Z"/><path class="cls-2" d="M158.1,41.44h22.09V19.34A19.39,19.39,0,0,1,199.53,0h0a19.39,19.39,0,0,1,19.34,19.34v22.1H241A19.38,19.38,0,0,1,260.3,60.78h0A19.38,19.38,0,0,1,241,80.12h-22.1v22.1a19.39,19.39,0,0,1-19.34,19.34h0a19.39,19.39,0,0,1-19.34-19.34V80.12H158.1a19.4,19.4,0,0,1-19.35-19.34h0A19.4,19.4,0,0,1,158.1,41.44Z"/><text class="cls-3" transform="translate(309.12 200.56)">SIRUS</text></g></g></svg>