<svg xmlns="http://www.w3.org/2000/svg" viewBox="0 0 809.43 244.44"><defs><style>.cls-1,.cls-2{fill:#fff;}.cls-1{fill-rule:evenodd;}.cls-2{font-size:160px;font-family:Montserrat-Bold, Montserrat;font-weight:700;}</style></defs><g id="Layer_2" data-name="Layer 2"><g id="Layer_1-2" data-name="Layer 1"><path class="cls-1" d="M99.17,14.08C-51.45,35-24,266.61,137.66,242.72c60.1-8.88,105.93-63.52,94.54-135.43-.13-.77-.26-1.54-.4-2.32a32.45,32.45,0,0,1-32.27,29.64c-.94,0-1.88,0-2.79-.12-2.62,38.87-31,67.67-67.28,72.34C20.54,220.88.85,66,106.62,49.94a84.58,84.58,0,0,1,21.17-.58,32.52,32.52,0,0,1,30.31-21h9V22.25C147.46,13.82,124.36,10.58,99.17,14.08Z"/><path class="cls-1" d="M180.11,147.4c-21.36,9-31.41,17.61-61.48,17.69-24.41.06-46.69-7.35-61.27-18.5,4,16,33.64,39,59,39.85C146.41,187.46,173.59,166.29,180.11,147.4Z"/><path class="cls-1" d="M158.1,41.44h22.09V19.34A19.39,19.39,0,0,1,199.53,0h0a19.39,19.39,0,0,1,19.34,19.34v22.1H241A19.38,19.38,0,0,1,260.3,60.77h0A19.38,19.38,0,0,1,241,80.12h-22.1v22.1a19.4,19.4,0,0,1-19.34,19.34h0a19.4,19.4,0,0,1-19.34-19.34V80.12H158.1a19.4,19.4,0,0,1-19.35-19.35h0A19.39,19.39,0,0,1,158.1,41.44Z"/><text class="cls-2" transform="translate(309.12 201.88)">SIRUS</text></g></g></svg>